<svg
              xmlns="http://www.w3.org/2000/svg"
              viewBox="0 0 49.48 49.48"
              id="project"
              width="20"
              height="20"
            >
              <rect
                width="47.48"
                height="47.48"
                x="1"
                y="1"
                fill="none"
                stroke="#231f20"
                stroke-miterlimit="10"
                stroke-width="2"
                rx="6.69"
              ></rect>
              <rect
                width="5.81"
                height="3.9"
                x="8.94"
                y="15.46"
                fill="none"
                stroke="#231f20"
                stroke-linecap="round"
                stroke-linejoin="round"
                stroke-width="2"
                rx="1.33"
              ></rect>
              <path
                fill="none"
                stroke="#231f20"
                stroke-linecap="round"
                stroke-linejoin="round"
                stroke-width="2"
                d="M8.94 23.31v14.38a1.34 1.34 0 0 0 .38.92l1.81 1.8a1 1 0 0 0 1.44 0l1.8-1.8a1.34 1.34 0 0 0 .38-.92V23.31a1.3 1.3 0 0 0-1.3-1.3h-3.21a1.3 1.3 0 0 0-1.3 1.3zm31.79-9.15v24.75a1.82 1.82 0 0 1-1.86 1.79H21.08a1.82 1.82 0 0 1-1.86-1.79v-28.2a1.82 1.82 0 0 1 1.86-1.79h14.21a.31.31 0 0 1 .22.09l2.56 2.47 2.57 2.47a.3.3 0 0 1 .09.21z"
              ></path>
              <path
                fill="none"
                stroke="#231f20"
                stroke-linecap="round"
                stroke-linejoin="round"
                stroke-width="2"
                d="M35.29 8.92v4.39a.8.8 0 0 0 .76.83h4.68"
              ></path>
            </svg>